<svg data-v-423bf9ae="" xmlns="http://www.w3.org/2000/svg" viewBox="0 0 631 90" class="iconLeftSlogan"><!----><!----><!----><g data-v-423bf9ae="" id="94b71ffe-9e84-41af-a5c1-d1434fd3005c" fill="white" transform="matrix(6.191950123131256,0,0,6.191950123131256,123.59772368449097,-5.6346755493001766)"><path d="M6.01 4.23L6.01 4.23L6.01 4.23Q6.01 3.71 5.91 3.41L5.91 3.41L5.91 3.41Q5.81 3.11 5.57 2.95L5.57 2.95L5.57 2.95Q5.32 2.80 5.03 2.75L5.03 2.75L5.03 2.75Q4.75 2.70 4.24 2.70L4.24 2.70L4.24 5.78L4.24 5.78Q4.63 5.78 4.94 5.71L4.94 5.71L4.94 5.71Q5.24 5.64 5.49 5.47L5.49 5.47L5.49 5.47Q5.74 5.31 5.87 4.99L5.87 4.99L5.87 4.99Q6.01 4.68 6.01 4.23ZM4.24 7.62L4.24 8.40L4.24 8.40Q4.24 9.53 3.82 10.02L3.82 10.02L3.82 10.02Q3.40 10.50 2.53 10.50L2.53 10.50L2.53 10.50Q1.67 10.50 1.26 10.06L1.26 10.06L1.26 10.06Q0.85 9.62 0.85 8.50L0.85 8.50L0.85 2.59L0.85 2.59Q0.85 1.74 1.32 1.32L1.32 1.32L1.32 1.32Q1.78 0.91 2.53 0.91L2.53 0.91L5.03 0.91L5.03 0.91Q5.94 0.91 6.71 1.15L6.71 1.15L6.71 1.15Q7.48 1.40 8.04 1.84L8.04 1.84L8.04 1.84Q8.61 2.28 8.93 2.95L8.93 2.95L8.93 2.95Q9.24 3.61 9.24 4.42L9.24 4.42L9.24 4.42Q9.24 5.42 8.67 6.15L8.67 6.15L8.67 6.15Q8.09 6.89 7.15 7.25L7.15 7.25L7.15 7.25Q6.22 7.62 5.04 7.62L5.04 7.62L4.24 7.62ZM13.50 4.98L13.51 7.55L13.51 7.55Q13.51 8.34 14.13 8.34L14.13 8.34L14.13 8.34Q14.34 8.34 14.50 8.21L14.50 8.21L14.50 8.21Q14.66 8.08 14.74 7.84L14.74 7.84L14.74 7.84Q14.83 7.60 14.83 7.29L14.83 7.29L14.83 5.42L14.83 5.42Q14.83 4.94 14.99 4.58L14.99 4.58L14.99 4.58Q15.16 4.23 15.48 4.03L15.48 4.03L15.48 4.03Q15.81 3.84 16.24 3.84L16.24 3.84L16.24 3.84Q17.00 3.84 17.42 4.17L17.42 4.17L17.42 4.17Q17.84 4.49 17.84 5.38L17.84 5.38L17.84 9.02L17.84 9.02Q17.84 9.87 17.49 10.19L17.49 10.19L17.49 10.19Q17.14 10.51 16.25 10.51L16.25 10.51L16.25 10.51Q15.88 10.51 15.61 10.44L15.61 10.44L15.61 10.44Q15.34 10.36 15.18 10.21L15.18 10.21L15.18 10.21Q15.02 10.05 14.94 9.80L14.94 9.80L14.94 9.80Q14.36 10.18 13.73 10.33L13.73 10.33L13.73 10.33Q13.09 10.49 12.31 10.49L12.31 10.49L12.31 10.49Q11.31 10.49 10.88 9.71L10.88 9.71L10.88 9.71Q10.44 8.93 10.44 7.15L10.44 7.15L10.44 7.15Q10.44 6.27 10.49 5.72L10.49 5.72L10.49 5.72Q10.53 5.17 10.62 4.77L10.62 4.77L10.62 4.77Q10.71 4.37 10.90 4.17L10.90 4.17L10.90 4.17Q11.09 3.98 11.35 3.89L11.35 3.89L11.35 3.89Q11.61 3.81 12.03 3.81L12.03 3.81L12.03 3.81Q12.81 3.81 13.15 4.10L13.15 4.10L13.15 4.10Q13.50 4.40 13.50 4.98L13.50 4.98ZM22.20 6.19L22.20 9.00L22.20 9.00Q22.20 9.84 21.85 10.17L21.85 10.17L21.85 10.17Q21.50 10.50 20.61 10.50L20.61 10.50L20.61 10.50Q19.78 10.50 19.49 10.12L19.49 10.12L19.49 10.12Q19.19 9.73 19.19 8.85L19.19 8.85L19.19 5.40L19.19 5.40Q19.19 4.93 19.36 4.57L19.36 4.57L19.36 4.57Q19.53 4.21 19.85 4.02L19.85 4.02L19.85 4.02Q20.17 3.82 20.61 3.82L20.61 3.82L20.61 3.82Q21.67 3.82 22.01 4.44L22.01 4.44L22.01 4.44Q22.82 3.82 23.58 3.82L23.58 3.82L23.58 3.82Q25.05 3.82 25.05 5.22L25.05 5.22L25.05 5.22Q25.05 5.78 24.72 6.13L24.72 6.13L24.72 6.13Q24.40 6.48 23.88 6.48L23.88 6.48L23.88 6.48Q23.58 6.48 23.39 6.36L23.39 6.36L23.39 6.36Q23.20 6.23 23.04 6.10L23.04 6.10L23.04 6.10Q22.88 5.98 22.67 5.98L22.67 5.98L22.67 5.98Q22.36 5.98 22.20 6.19L22.20 6.19ZM29.65 10.58L29.65 10.58L29.65 10.58Q27.94 10.58 26.83 9.70L26.83 9.70L26.83 9.70Q25.72 8.82 25.72 7.29L25.72 7.29L25.72 7.29Q25.72 5.64 26.82 4.68L26.82 4.68L26.82 4.68Q27.92 3.72 29.65 3.72L29.65 3.72L29.65 3.72Q31.29 3.72 32.05 4.30L32.05 4.30L32.05 4.30Q32.82 4.89 32.82 5.89L32.82 5.89L32.82 5.89Q32.82 6.09 32.77 6.27L32.77 6.27L32.77 6.27Q32.72 6.45 32.61 6.63L32.61 6.63L32.61 6.63Q32.51 6.80 32.33 6.95L32.33 6.95L32.33 6.95Q32.16 7.10 31.93 7.22L31.93 7.22L31.93 7.22Q31.71 7.34 31.40 7.40L31.40 7.40L31.40 7.40Q31.09 7.46 30.74 7.46L30.74 7.46L28.77 7.48L28.77 7.48Q28.91 7.92 29.27 8.18L29.27 8.18L29.27 8.18Q29.64 8.44 30.20 8.44L30.20 8.44L30.20 8.44Q30.80 8.44 31.43 8.29L31.43 8.29L31.43 8.29Q31.70 8.22 32.01 8.06L32.01 8.06L32.01 8.06Q32.33 7.91 32.47 7.91L32.47 7.91L32.47 7.91Q32.70 7.91 32.84 8.05L32.84 8.05L32.84 8.05Q32.97 8.19 32.97 8.40L32.97 8.40L32.97 8.40Q32.97 8.65 32.75 9.01L32.75 9.01L32.75 9.01Q32.52 9.37 32.12 9.72L32.12 9.72L32.12 9.72Q31.72 10.08 31.07 10.33L31.07 10.33L31.07 10.33Q30.41 10.58 29.65 10.58ZM28.70 6.58L28.70 6.58L28.70 6.58Q29.67 6.57 29.75 6.57L29.75 6.57L29.75 6.57Q29.96 6.57 30.06 6.31L30.06 6.31L30.06 6.31Q30.13 6.13 30.13 5.81L30.13 5.81L30.13 5.81Q30.13 4.93 29.60 4.93L29.60 4.93L29.60 4.93Q29.40 4.93 29.21 5.14L29.21 5.14L29.21 5.14Q29.02 5.35 28.88 5.73L28.88 5.73L28.88 5.73Q28.74 6.12 28.70 6.58ZM39.72 3.61L39.72 3.61L39.72 3.61Q39.72 3.02 39.26 2.81L39.26 2.81L39.26 2.81Q38.81 2.59 37.74 2.59L37.74 2.59L37.74 4.73L37.74 4.73Q38.40 4.73 38.81 4.63L38.81 4.63L38.81 4.63Q39.23 4.54 39.47 4.29L39.47 4.29L39.47 4.29Q39.72 4.05 39.72 3.61ZM39.90 7.35L39.90 7.35L39.90 7.35Q39.90 6.89 39.66 6.64L39.66 6.64L39.66 6.64Q39.42 6.38 38.98 6.28L38.98 6.28L38.98 6.28Q38.53 6.17 37.74 6.17L37.74 6.17L37.74 8.60L37.74 8.60Q38.84 8.60 39.37 8.32L39.37 8.32L39.37 8.32Q39.90 8.05 39.90 7.35ZM41.62 5.52L41.62 5.52L41.62 5.52Q42.92 6.29 42.92 7.57L42.92 7.57L42.92 7.57Q42.92 8.13 42.71 8.64L42.71 8.64L42.71 8.64Q42.49 9.16 42.06 9.58L42.06 9.58L42.06 9.58Q41.64 10.00 40.94 10.24L40.94 10.24L40.94 10.24Q40.24 10.49 39.35 10.49L39.35 10.49L36.11 10.49L36.11 10.49Q35.25 10.49 34.88 10.05L34.88 10.05L34.88 10.05Q34.51 9.62 34.51 8.50L34.51 8.50L34.51 2.58L34.51 2.58Q34.51 2.10 34.68 1.74L34.68 1.74L34.68 1.74Q34.85 1.37 35.22 1.15L35.22 1.15L35.22 1.15Q35.59 0.92 36.11 0.92L36.11 0.92L39.31 0.92L39.31 0.92Q40.71 0.94 41.64 1.69L41.64 1.69L41.64 1.69Q42.57 2.44 42.57 3.61L42.57 3.61L42.57 3.61Q42.57 3.99 42.51 4.28L42.51 4.28L42.51 4.28Q42.45 4.56 42.32 4.79L42.32 4.79L42.32 4.79Q42.20 5.01 42.03 5.18L42.03 5.18L42.03 5.18Q41.86 5.35 41.62 5.52ZM47.47 2.46L47.47 8.39L47.47 8.39Q47.47 9.52 47.10 10.01L47.10 10.01L47.10 10.01Q46.72 10.50 45.93 10.50L45.93 10.50L45.93 10.50Q45.15 10.50 44.79 10.06L44.79 10.06L44.79 10.06Q44.42 9.62 44.42 8.50L44.42 8.50L44.39 2.59L44.39 2.59Q44.39 2.23 44.47 1.95L44.47 1.95L44.47 1.95Q44.55 1.67 44.68 1.47L44.68 1.47L44.68 1.47Q44.81 1.27 45.01 1.15L45.01 1.15L45.01 1.15Q45.21 1.02 45.44 0.97L45.44 0.97L45.44 0.97Q45.67 0.91 45.93 0.91L45.93 0.91L45.93 0.91Q46.70 0.91 47.09 1.22L47.09 1.22L47.09 1.22Q47.47 1.53 47.47 2.46L47.47 2.46ZM53.28 7.18L53.28 7.18L53.28 7.18Q53.28 6.45 53.10 5.90L53.10 5.90L53.10 5.90Q52.92 5.35 52.57 5.35L52.57 5.35L52.57 5.35Q52.33 5.35 52.15 5.63L52.15 5.63L52.15 5.63Q51.97 5.91 51.88 6.31L51.88 6.31L51.88 6.31Q51.80 6.72 51.80 7.18L51.80 7.18L51.80 7.18Q51.80 7.90 52.00 8.44L52.00 8.44L52.00 8.44Q52.19 8.97 52.56 8.97L52.56 8.97L52.56 8.97Q52.92 8.97 53.10 8.44L53.10 8.44L53.10 8.44Q53.28 7.91 53.28 7.18ZM52.56 10.60L52.56 10.60L52.56 10.60Q51.46 10.60 50.59 10.21L50.59 10.21L50.59 10.21Q49.71 9.81 49.19 9.03L49.19 9.03L49.19 9.03Q48.66 8.25 48.66 7.20L48.66 7.20L48.66 7.20Q48.66 5.60 49.76 4.66L49.76 4.66L49.76 4.66Q50.85 3.72 52.56 3.72L52.56 3.72L52.56 3.72Q54.26 3.72 55.34 4.66L55.34 4.66L55.34 4.66Q56.42 5.60 56.42 7.20L56.42 7.20L56.42 7.20Q56.42 8.78 55.32 9.69L55.32 9.69L55.32 9.69Q54.22 10.60 52.56 10.60ZM62.12 7.18L62.12 7.18L62.12 7.18Q62.12 6.45 61.94 5.90L61.94 5.90L61.94 5.90Q61.75 5.35 61.40 5.35L61.40 5.35L61.40 5.35Q61.17 5.35 60.98 5.63L60.98 5.63L60.98 5.63Q60.80 5.91 60.72 6.31L60.72 6.31L60.72 6.31Q60.63 6.72 60.63 7.18L60.63 7.18L60.63 7.18Q60.63 7.90 60.83 8.44L60.83 8.44L60.83 8.44Q61.03 8.97 61.39 8.97L61.39 8.97L61.39 8.97Q61.75 8.97 61.94 8.44L61.94 8.44L61.94 8.44Q62.12 7.91 62.12 7.18ZM61.39 10.60L61.39 10.60L61.39 10.60Q60.30 10.60 59.42 10.21L59.42 10.21L59.42 10.21Q58.55 9.81 58.02 9.03L58.02 9.03L58.02 9.03Q57.50 8.25 57.50 7.20L57.50 7.20L57.50 7.20Q57.50 5.60 58.59 4.66L58.59 4.66L58.59 4.66Q59.68 3.72 61.39 3.72L61.39 3.72L61.39 3.72Q63.10 3.72 64.18 4.66L64.18 4.66L64.18 4.66Q65.25 5.60 65.25 7.20L65.25 7.20L65.25 7.20Q65.25 8.78 64.16 9.69L64.16 9.69L64.16 9.69Q63.06 10.60 61.39 10.60ZM73.89 2.46L73.89 8.40L73.89 8.40Q73.89 9.53 73.51 10.02L73.51 10.02L73.51 10.02Q73.14 10.50 72.35 10.50L72.35 10.50L72.35 10.50Q71.46 10.50 71.12 9.94L71.12 9.94L71.12 9.94Q70.21 10.60 68.92 10.60L68.92 10.60L68.92 10.60Q67.83 10.60 67.10 9.70L67.10 9.70L67.10 9.70Q66.37 8.79 66.37 7.22L66.37 7.22L66.37 7.22Q66.37 5.63 67.09 4.68L67.09 4.68L67.09 4.68Q67.80 3.74 68.92 3.74L68.92 3.74L68.92 3.74Q69.93 3.74 70.81 4.38L70.81 4.38L70.81 2.59L70.81 2.59Q70.81 1.74 71.23 1.32L71.23 1.32L71.23 1.32Q71.65 0.91 72.35 0.91L72.35 0.91L72.35 0.91Q73.12 0.91 73.51 1.22L73.51 1.22L73.51 1.22Q73.89 1.53 73.89 2.46L73.89 2.46ZM70.84 8.48L70.84 8.48L70.83 5.87L70.83 5.87Q70.59 5.47 70.21 5.47L70.21 5.47L70.21 5.47Q69.97 5.47 69.78 5.74L69.78 5.74L69.78 5.74Q69.59 6.01 69.50 6.40L69.50 6.40L69.50 6.40Q69.40 6.79 69.40 7.22L69.40 7.22L69.40 7.22Q69.40 7.87 69.61 8.37L69.61 8.37L69.61 8.37Q69.82 8.88 70.20 8.88L70.20 8.88L70.20 8.88Q70.27 8.88 70.34 8.86L70.34 8.86L70.34 8.86Q70.41 8.85 70.46 8.83L70.46 8.83L70.46 8.83Q70.52 8.81 70.57 8.77L70.57 8.77L70.57 8.77Q70.63 8.74 70.67 8.69L70.67 8.69L70.67 8.69Q70.71 8.65 70.76 8.60L70.76 8.60L70.76 8.60Q70.80 8.54 70.84 8.48ZM78.47 3.72L78.47 3.72L78.47 3.72Q79.77 3.72 80.64 4.26L80.64 4.26L80.64 4.26Q81.51 4.79 81.51 5.42L81.51 5.42L81.51 5.42Q81.51 5.60 81.35 5.75L81.35 5.75L81.35 5.75Q81.20 5.91 80.96 5.91L80.96 5.91L80.96 5.91Q80.75 5.91 80.50 5.76L80.50 5.76L80.50 5.76Q80.25 5.61 80.02 5.45L80.02 5.45L80.02 5.45Q79.80 5.28 79.44 5.14L79.44 5.14L79.44 5.14Q79.07 5.00 78.67 5.00L78.67 5.00L78.67 5.00Q78.12 5.00 78.12 5.33L78.12 5.33L78.12 5.33Q78.12 5.57 78.40 5.71L78.40 5.71L78.40 5.71Q78.68 5.85 79.22 6.01L79.22 6.01L79.22 6.01Q79.76 6.16 80.04 6.30L80.04 6.30L80.04 6.30Q81.09 6.71 81.48 7.17L81.48 7.17L81.48 7.17Q81.87 7.64 81.87 8.41L81.87 8.41L81.87 8.41Q81.87 8.79 81.66 9.16L81.66 9.16L81.66 9.16Q81.45 9.53 81.03 9.86L81.03 9.86L81.03 9.86Q80.61 10.19 79.89 10.39L79.89 10.39L79.89 10.39Q79.17 10.60 78.25 10.60L78.25 10.60L78.25 10.60Q76.44 10.60 75.54 9.77L75.54 9.77L75.54 9.77Q75.11 9.37 75.11 8.93L75.11 8.93L75.11 8.93Q75.11 8.67 75.28 8.51L75.28 8.51L75.28 8.51Q75.46 8.36 75.78 8.36L75.78 8.36L75.78 8.36Q76.10 8.36 76.76 8.67L76.76 8.67L76.76 8.67Q77.42 8.99 77.98 8.99L77.98 8.99L77.98 8.99Q78.75 8.99 78.75 8.61L78.75 8.61L78.75 8.61Q78.75 8.41 78.34 8.29L78.34 8.29L78.34 8.29Q77.94 8.18 77.28 8.01L77.28 8.01L77.28 8.01Q76.62 7.84 76.23 7.59L76.23 7.59L76.23 7.59Q75.61 7.32 75.37 6.92L75.37 6.92L75.37 6.92Q75.12 6.52 75.12 5.95L75.12 5.95L75.12 5.95Q75.12 4.97 76.06 4.35L76.06 4.35L76.06 4.35Q76.99 3.72 78.47 3.72Z"></path></g><!----><g data-v-423bf9ae="" id="c9265e66-2734-436e-bead-c1d9b9b0126c" transform="matrix(1.6436544436568958,0,0,1.6436544436568958,-27.297898121519268,-36.568453080499324)" stroke="none" fill="white"><path d="M34.444 77.329v.039h24.338a4.583 4.583 0 0 0 0-9.166 4.583 4.583 0 0 0 0-9.166 4.583 4.583 0 0 0 0-9.166h19.75a4.583 4.583 0 0 0 0-9.166H49.336v-.008H37.876l8.241-10.678a4.583 4.583 0 1 0-7.257-5.601L21.568 46.821a18.328 18.328 0 0 0-1.703 2.206l-.046.059a4.609 4.609 0 0 0-.525.88 18.231 18.231 0 0 0-2.41 9.064c0 9.866 7.796 17.888 17.56 18.299z"></path><path d="M68.75 70.268a7.122 7.122 0 0 0 14.244 0c0-3.933-7.122-15.454-7.122-15.454S68.75 66.335 68.75 70.268z"></path></g><!----><g data-v-423bf9ae="" id="3b2dfa5c-4695-48df-81d1-22a70d3cca72" fill="white" transform="matrix(0.8914449718072758,0,0,0.8914449718072758,128.3973162185262,57.41481117880754)"><path d="M0.52 3.51C0.52 3.75 0.60 3.77 0.77 3.77L1.30 3.77C1.36 3.77 1.36 4.12 1.36 4.55C1.36 5.66 1.34 8.96 1.34 9.42C1.34 11.13 1.60 12.80 4.45 12.80C5.53 12.80 6.69 12.38 7.35 12.00C7.60 11.86 7.90 11.72 7.98 11.72C8.25 11.72 8.51 12.74 8.85 12.74C9.17 12.74 9.18 12.35 9.18 12.25C9.18 11.96 9.24 10.08 9.28 8.16C9.34 6.12 9.32 3.77 9.44 3.77L9.76 3.77C9.98 3.77 10.05 3.75 10.05 3.56C10.05 3.32 10.01 3.26 9.81 3.26C9.67 3.26 9.14 3.30 8.72 3.30C8.30 3.30 7.50 3.26 7.28 3.26C7.10 3.26 7 3.28 7 3.51C7 3.75 7.11 3.77 7.28 3.77L7.98 3.77C8.05 3.77 8.06 4.30 8.06 4.87L8.06 9.14C8.06 11.19 8.06 11.12 7.73 11.34C7.34 11.61 6.52 12.08 5.35 12.08C3.37 12.08 2.58 11.17 2.58 9.41C2.58 8.82 2.65 3.77 2.76 3.77L3.67 3.77C3.89 3.77 3.93 3.75 3.93 3.56C3.93 3.32 3.92 3.26 3.72 3.26C3.40 3.26 2.52 3.30 2.10 3.30C1.68 3.30 0.99 3.26 0.77 3.26C0.59 3.26 0.52 3.28 0.52 3.51ZM18.09 12.39C18.09 12.63 18.10 12.68 18.30 12.68C18.48 12.68 18.86 12.64 19.47 12.64C20.10 12.64 20.66 12.68 20.99 12.68C21.15 12.68 21.15 12.61 21.15 12.40C21.15 12.24 21.15 12.18 20.99 12.18L19.78 12.18C19.74 12.18 19.73 11.54 19.73 10.79C19.73 9.46 19.74 7.48 19.74 5.99C19.74 5.25 19.74 4.84 19.75 4.28C19.75 4.02 19.82 4.14 19.95 4.28L26.84 12.66C26.92 12.75 27.01 12.89 27.12 12.89C27.23 12.89 27.30 12.77 27.30 12.54C27.30 12.39 27.47 6.65 27.48 4.48C27.48 4.06 27.51 3.70 27.54 3.70L28.17 3.70C28.39 3.70 28.45 3.68 28.45 3.49C28.45 3.25 28.45 3.19 28.25 3.19C28.06 3.19 27.62 3.23 27.06 3.23C26.45 3.23 25.65 3.19 25.55 3.19C25.38 3.19 25.38 3.26 25.38 3.47C25.38 3.64 25.38 3.70 25.55 3.70L26.85 3.70C26.87 3.70 26.87 4.33 26.87 4.44C26.87 5.85 26.89 8.33 26.89 9.70L26.89 10.29C26.89 10.57 26.88 10.65 26.66 10.37L20.97 3.39C20.86 3.25 20.83 3.19 20.66 3.19C20.58 3.19 20.20 3.23 19.89 3.23C19.60 3.23 18.52 3.19 18.33 3.19C18.16 3.19 18.13 3.26 18.13 3.47C18.13 3.64 18.16 3.70 18.33 3.70L19.24 3.70C19.24 4.17 19.19 8.53 19.12 10.79C19.10 11.69 19.11 12.18 19.00 12.18L18.35 12.18C18.13 12.18 18.09 12.19 18.09 12.39ZM36.41 12.39C36.41 12.63 36.44 12.68 36.64 12.68C36.88 12.68 37.38 12.64 37.80 12.64C38.22 12.64 38.71 12.68 39.03 12.68C39.20 12.68 39.23 12.61 39.23 12.40C39.23 12.24 39.20 12.18 39.03 12.18L38.07 12.18C38.01 12.18 38.00 11.54 38.00 10.79C38.00 8.96 38.04 6.13 38.11 4.28C38.14 3.88 38.16 3.91 38.30 4.27L41.57 12.32C41.66 12.54 41.73 12.74 41.85 12.74C41.94 12.74 42.01 12.63 42.10 12.45C42.43 11.79 42.62 11.75 42.88 11.09L45.47 4.47C45.60 4.16 45.64 4.02 45.65 4.47C45.68 5.66 45.72 8.47 45.72 9.74C45.72 10.99 45.68 12.18 45.63 12.18L45.00 12.18C44.77 12.18 44.70 12.19 44.70 12.39C44.70 12.63 44.73 12.68 44.93 12.68C45.12 12.68 45.82 12.64 46.42 12.64C46.84 12.64 47.60 12.68 47.92 12.68C48.09 12.68 48.12 12.61 48.12 12.40C48.12 12.22 48.06 12.18 47.89 12.18L47.17 12.18C47.05 12.18 46.96 8.44 46.96 6.03L46.96 4.77C46.96 4.17 46.98 3.77 47.03 3.70L47.68 3.70C47.91 3.70 47.95 3.68 47.95 3.49C47.95 3.25 47.94 3.19 47.74 3.19C47.42 3.19 46.73 3.23 46.31 3.23L45.64 3.23C45.42 3.23 45.39 3.29 45.28 3.58L42.53 10.72C42.45 10.95 42.42 11.02 42.31 10.74L39.37 3.40C39.30 3.22 39.24 3.19 39.10 3.19C39.02 3.19 38.53 3.23 38.22 3.23C37.72 3.23 36.86 3.19 36.67 3.19C36.53 3.19 36.53 3.26 36.53 3.47C36.53 3.64 36.53 3.70 36.67 3.70L37.37 3.70C37.63 3.70 37.63 3.72 37.63 3.84C37.63 4.82 37.42 9.94 37.38 10.79C37.34 11.55 37.34 12.18 37.28 12.18L36.71 12.18C36.48 12.18 36.41 12.19 36.41 12.39ZM55.87 12.39C55.87 12.63 55.87 12.68 56.07 12.68C56.24 12.68 56.56 12.64 57.13 12.64C57.75 12.64 58.30 12.68 58.45 12.68C58.62 12.68 58.62 12.61 58.62 12.40C58.62 12.24 58.62 12.18 58.45 12.18L57.37 12.18C57.37 12.18 57.36 12.18 57.36 12.17C57.37 11.87 58.14 9.90 58.49 9.02C58.56 8.83 58.58 8.79 58.79 8.79L61.61 8.79C61.75 8.79 61.75 8.81 61.82 9.03C62.09 9.77 62.80 11.89 62.80 12.17C62.80 12.18 62.79 12.18 62.79 12.18L62.02 12.18C61.80 12.18 61.78 12.19 61.78 12.39C61.78 12.63 61.80 12.68 61.96 12.68C62.29 12.68 63.15 12.64 63.57 12.64C63.99 12.64 64.67 12.68 64.88 12.68C65.02 12.68 65.03 12.61 65.03 12.40C65.03 12.24 65.02 12.18 64.88 12.18L64.39 12.18C64.29 12.18 63.27 9.34 62.71 7.78L61.03 3.07C61.01 3.00 60.94 2.94 60.86 2.94C60.73 2.94 60.63 3.16 60.55 3.35C60.40 3.71 60.16 3.84 60.05 4.13L58.56 7.57C58.38 8.01 56.67 12.18 56.55 12.18L56.13 12.18C55.90 12.18 55.87 12.19 55.87 12.39ZM58.77 8.33C58.77 8.30 58.80 8.23 58.84 8.13L60.21 4.77C60.26 4.66 60.28 4.61 60.31 4.61C60.33 4.61 60.34 4.63 60.38 4.77L61.54 8.18C61.57 8.25 61.59 8.29 61.59 8.32C61.59 8.36 61.56 8.37 61.46 8.37L58.95 8.37C58.77 8.37 58.77 8.34 58.77 8.33ZM73.00 5.77C73.00 9.07 77.98 8.20 77.98 10.65C77.98 11.59 77.14 12.31 76.16 12.31C75.33 12.31 73.74 11.83 73.71 11.47L73.63 10.15C73.61 9.97 73.54 9.91 73.36 9.91L73.29 9.91C73.08 9.91 73.08 10.00 73.08 10.12C73.08 10.32 73.19 11.66 73.22 12.17C73.23 12.38 74.49 12.85 76.03 12.85C77.60 12.85 79.21 11.87 79.21 10.11C79.21 6.79 74.24 7.87 74.24 5.32C74.24 4.31 75.03 3.56 76.06 3.56C77.08 3.56 78.18 4.58 78.18 4.89C78.18 5.01 78.13 5.73 78.13 5.78C78.13 5.92 78.18 5.99 78.44 5.99C78.68 5.99 78.69 5.94 78.69 5.75C78.69 5.04 78.78 3.68 78.78 3.53C78.78 3.30 78.74 3.29 78.47 3.29C78.25 3.29 78.23 3.32 78.22 3.53C78.22 3.61 78.20 3.78 78.16 3.78C78.11 3.78 78.02 3.74 77.95 3.68C77.15 3.14 76.54 3.08 76.03 3.08C74.51 3.08 73.00 4.17 73.00 5.77ZM87.18 12.39C87.18 12.63 87.19 12.68 87.39 12.68C87.71 12.68 88.61 12.64 89.03 12.64C89.45 12.64 90.40 12.68 90.72 12.68C90.89 12.68 90.90 12.61 90.90 12.40C90.90 12.24 90.87 12.18 90.71 12.18L89.70 12.18C89.60 12.18 89.57 10.12 89.57 8.46C89.57 8.30 89.57 8.30 89.74 8.30L90.01 8.30C90.22 8.30 90.22 8.32 90.29 8.40L93.32 12.00C93.42 12.11 93.49 12.18 93.28 12.18L92.82 12.18C92.64 12.18 92.57 12.19 92.57 12.39C92.57 12.63 92.57 12.68 92.76 12.68C93.09 12.68 93.79 12.64 94.21 12.64C94.63 12.64 95.31 12.68 95.63 12.68C95.80 12.68 95.80 12.61 95.80 12.40C95.80 12.24 95.80 12.18 95.63 12.18L95.41 12.18C95.23 12.18 95.13 12.10 95.00 11.96L91.24 7.62C91.10 7.45 91.07 7.50 91.20 7.36C91.64 6.83 94.18 3.77 94.25 3.77L94.92 3.77C95.14 3.77 95.17 3.75 95.17 3.56C95.17 3.32 95.17 3.26 94.98 3.26C94.78 3.26 94.33 3.30 93.81 3.30C93.28 3.30 92.81 3.26 92.58 3.26C92.40 3.26 92.30 3.28 92.30 3.51C92.30 3.75 92.41 3.77 92.58 3.77L93.14 3.77C93.31 3.77 93.31 3.84 93.20 3.99C92.67 4.66 90.31 7.92 90.02 7.92L89.71 7.92C89.57 7.92 89.57 7.88 89.57 7.69L89.57 5.94C89.57 5.21 89.64 3.77 89.74 3.77L90.51 3.77C90.73 3.77 90.78 3.75 90.78 3.56C90.78 3.32 90.76 3.26 90.57 3.26C90.24 3.26 89.47 3.30 89.05 3.30C88.47 3.30 87.81 3.26 87.58 3.26C87.40 3.26 87.30 3.28 87.30 3.51C87.30 3.75 87.42 3.77 87.58 3.77L88.23 3.77C88.28 3.77 88.31 4.86 88.31 5.78L88.31 9.84C88.31 11.00 88.30 12.18 88.21 12.18L87.47 12.18C87.25 12.18 87.18 12.19 87.18 12.39ZM103.28 12.39C103.28 12.63 103.31 12.68 103.50 12.68C103.82 12.68 104.79 12.64 105.21 12.64C105.63 12.64 110.14 12.68 110.46 12.68C110.59 12.68 110.74 12.66 110.74 12.49C110.74 12.07 110.78 11.23 110.78 10.53C110.78 10.39 110.63 10.39 110.50 10.39C110.39 10.39 110.26 10.39 110.26 10.51C110.25 11.06 110.25 11.41 110.22 11.76C110.19 12.01 110.19 12.04 110.10 12.04C109.94 12.04 107.31 12.08 105.81 12.08C105.74 12.08 105.70 10.11 105.66 8.26C105.66 8.06 105.70 8.09 105.84 8.09L108.12 8.09C108.82 8.09 108.85 8.20 108.85 8.30L108.85 9.00C108.85 9.14 109.03 9.14 109.14 9.14C109.24 9.14 109.37 9.13 109.37 9.02C109.37 8.83 109.34 8.33 109.34 7.83C109.34 7.32 109.37 6.83 109.37 6.71C109.37 6.59 109.23 6.58 109.13 6.58C109.02 6.58 108.85 6.59 108.85 6.72L108.85 7.45C108.85 7.62 108.40 7.63 108.12 7.63L105.78 7.63C105.67 7.63 105.66 7.63 105.66 7.45C105.64 6.75 105.63 6.06 105.63 5.46C105.63 5.12 105.63 3.71 105.71 3.71C106.95 3.71 109.45 3.75 109.45 3.81C109.45 3.99 109.41 4.83 109.41 4.89C109.41 5.04 109.48 5.10 109.66 5.10C109.86 5.10 109.93 5.08 109.93 4.94C109.93 3.85 109.98 3.36 109.98 3.09C109.98 2.91 109.90 2.90 109.70 2.90C109.51 2.90 109.51 2.95 109.48 3.11C109.47 3.25 109.54 3.25 108.63 3.25C108.01 3.25 105.87 3.29 105.10 3.29C104.61 3.29 103.67 3.25 103.57 3.25C103.45 3.25 103.39 3.30 103.39 3.49C103.39 3.72 103.46 3.74 103.63 3.74L104.29 3.74C104.34 3.74 104.41 4.79 104.41 5.71C104.41 5.80 104.47 8.27 104.47 9.83L104.47 11.17C104.47 11.84 104.44 12.18 104.41 12.18L103.56 12.18C103.33 12.18 103.28 12.21 103.28 12.39ZM118.68 12.46C118.68 12.63 118.69 12.70 118.87 12.70C119.03 12.70 120.26 12.64 120.65 12.64C121.51 12.64 122.39 12.70 123.24 12.70C125.86 12.70 128.25 11.07 128.25 7.91C128.25 4.89 125.92 3.07 122.88 3.07C122.32 3.07 121.06 3.23 120.02 3.23C119.55 3.23 119.08 3.22 119.03 3.22C118.85 3.22 118.83 3.32 118.83 3.49C118.83 3.68 118.90 3.70 119.03 3.70L119.99 3.67C120.02 3.67 120.02 4.20 120.02 4.72C120.02 5.91 119.94 12.21 119.85 12.21L118.96 12.21C118.78 12.21 118.68 12.22 118.68 12.46ZM121.25 11.40C121.25 9.46 121.25 7.52 121.27 5.60C121.27 5.03 121.31 3.61 121.35 3.60C121.65 3.53 122.23 3.51 122.58 3.51C125.15 3.51 126.76 5.75 126.76 7.73C126.76 8.95 126.71 12.25 122.04 12.25C121.77 12.25 121.37 12.25 121.27 12.21C121.25 12.19 121.25 11.79 121.25 11.40ZM145.94 9.79C145.94 9.84 145.98 9.87 146.03 9.87C146.23 9.87 148.54 9.77 148.74 9.76C148.83 9.74 148.88 9.38 148.88 9.21C148.88 9.17 148.88 9.09 148.82 9.09C148.74 9.09 146.34 9.17 146.20 9.18C146.08 9.20 145.94 9.69 145.94 9.79ZM166.57 3.51C166.57 3.75 166.66 3.77 166.82 3.77L167.36 3.77C167.41 3.77 167.41 4.12 167.41 4.55C167.41 5.66 167.40 8.96 167.40 9.42C167.40 11.13 167.65 12.80 170.51 12.80C171.58 12.80 172.75 12.38 173.40 12.00C173.66 11.86 173.95 11.72 174.03 11.72C174.30 11.72 174.57 12.74 174.90 12.74C175.22 12.74 175.24 12.35 175.24 12.25C175.24 11.96 175.29 10.08 175.34 8.16C175.39 6.12 175.38 3.77 175.49 3.77L175.81 3.77C176.04 3.77 176.11 3.75 176.11 3.56C176.11 3.32 176.06 3.26 175.87 3.26C175.73 3.26 175.20 3.30 174.78 3.30C174.36 3.30 173.56 3.26 173.33 3.26C173.15 3.26 173.05 3.28 173.05 3.51C173.05 3.75 173.17 3.77 173.33 3.77L174.03 3.77C174.10 3.77 174.12 4.30 174.12 4.87L174.12 9.14C174.12 11.19 174.12 11.12 173.78 11.34C173.39 11.61 172.58 12.08 171.40 12.08C169.43 12.08 168.63 11.17 168.63 9.41C168.63 8.82 168.70 3.77 168.81 3.77L169.72 3.77C169.95 3.77 169.99 3.75 169.99 3.56C169.99 3.32 169.97 3.26 169.78 3.26C169.46 3.26 168.57 3.30 168.15 3.30C167.73 3.30 167.05 3.26 166.82 3.26C166.64 3.26 166.57 3.28 166.57 3.51ZM184.14 12.39C184.14 12.63 184.16 12.68 184.35 12.68C184.53 12.68 184.91 12.64 185.53 12.64C186.16 12.64 186.72 12.68 187.04 12.68C187.21 12.68 187.21 12.61 187.21 12.40C187.21 12.24 187.21 12.18 187.04 12.18L185.84 12.18C185.79 12.18 185.78 11.54 185.78 10.79C185.78 9.46 185.79 7.48 185.79 5.99C185.79 5.25 185.79 4.84 185.81 4.28C185.81 4.02 185.88 4.14 186.00 4.28L192.89 12.66C192.98 12.75 193.06 12.89 193.17 12.89C193.28 12.89 193.35 12.77 193.35 12.54C193.35 12.39 193.52 6.65 193.54 4.48C193.54 4.06 193.56 3.70 193.59 3.70L194.22 3.70C194.45 3.70 194.50 3.68 194.50 3.49C194.50 3.25 194.50 3.19 194.31 3.19C194.11 3.19 193.68 3.23 193.12 3.23C192.50 3.23 191.70 3.19 191.60 3.19C191.44 3.19 191.44 3.26 191.44 3.47C191.44 3.64 191.44 3.70 191.60 3.70L192.91 3.70C192.92 3.70 192.92 4.33 192.92 4.44C192.92 5.85 192.95 8.33 192.95 9.70L192.95 10.29C192.95 10.57 192.93 10.65 192.71 10.37L187.03 3.39C186.91 3.25 186.89 3.19 186.72 3.19C186.63 3.19 186.26 3.23 185.95 3.23C185.65 3.23 184.58 3.19 184.38 3.19C184.21 3.19 184.18 3.26 184.18 3.47C184.18 3.64 184.21 3.70 184.38 3.70L185.29 3.70C185.29 4.17 185.25 8.53 185.18 10.79C185.15 11.69 185.16 12.18 185.05 12.18L184.41 12.18C184.18 12.18 184.14 12.19 184.14 12.39ZM202.12 3.51C202.12 3.75 202.22 3.77 202.38 3.77L202.82 3.77C202.90 3.77 205.69 10.99 205.73 11.07C206.22 12.18 206.32 12.99 206.53 12.99C206.79 12.99 206.85 12.67 207.13 12.26C207.28 12.04 207.37 12.01 207.52 11.66L210.76 4.06C210.87 3.81 210.85 3.77 211.22 3.77C211.44 3.77 211.51 3.75 211.51 3.56C211.51 3.32 211.47 3.26 211.27 3.26C211.13 3.26 210.60 3.30 210.18 3.30C209.76 3.30 208.94 3.26 208.71 3.26C208.52 3.26 208.46 3.29 208.46 3.51C208.46 3.75 208.59 3.77 208.75 3.77L209.75 3.77C209.82 3.77 209.83 3.81 209.83 3.95C209.83 4.63 208.15 8.72 207.42 10.63C207.28 10.99 207.20 11.17 207.16 11.17C207.12 11.17 207.02 10.98 206.88 10.60C206.30 9.10 205.17 6.01 204.65 4.49C204.57 4.27 204.48 3.93 204.48 3.79L204.48 3.77L205.46 3.77C205.69 3.77 205.76 3.75 205.76 3.56C205.76 3.32 205.72 3.26 205.52 3.26C205.20 3.26 204.12 3.30 203.70 3.30C203.28 3.30 202.57 3.26 202.38 3.26C202.20 3.26 202.12 3.28 202.12 3.51ZM217.31 12.39C217.31 12.63 217.31 12.68 217.50 12.68C217.67 12.68 217.99 12.64 218.57 12.64C219.18 12.64 219.73 12.68 219.88 12.68C220.05 12.68 220.05 12.61 220.05 12.40C220.05 12.24 220.05 12.18 219.88 12.18L218.81 12.18C218.81 12.18 218.79 12.18 218.79 12.17C218.81 11.87 219.58 9.90 219.93 9.02C220.00 8.83 220.01 8.79 220.22 8.79L223.05 8.79C223.19 8.79 223.19 8.81 223.26 9.03C223.52 9.77 224.24 11.89 224.24 12.17C224.24 12.18 224.22 12.18 224.22 12.18L223.45 12.18C223.23 12.18 223.22 12.19 223.22 12.39C223.22 12.63 223.23 12.68 223.40 12.68C223.72 12.68 224.59 12.64 225.01 12.64C225.43 12.64 226.10 12.68 226.31 12.68C226.45 12.68 226.46 12.61 226.46 12.40C226.46 12.24 226.45 12.18 226.31 12.18L225.82 12.18C225.72 12.18 224.70 9.34 224.14 7.78L222.46 3.07C222.45 3.00 222.38 2.94 222.29 2.94C222.17 2.94 222.07 3.16 221.98 3.35C221.83 3.71 221.59 3.84 221.48 4.13L220.00 7.57C219.81 8.01 218.11 12.18 217.98 12.18L217.56 12.18C217.34 12.18 217.31 12.19 217.31 12.39ZM220.21 8.33C220.21 8.30 220.23 8.23 220.28 8.13L221.65 4.77C221.69 4.66 221.72 4.61 221.75 4.61C221.76 4.61 221.77 4.63 221.82 4.77L222.98 8.18C223.01 8.25 223.02 8.29 223.02 8.32C223.02 8.36 222.99 8.37 222.89 8.37L220.39 8.37C220.21 8.37 220.21 8.34 220.21 8.33ZM233.80 12.43C233.80 12.66 233.88 12.68 234.07 12.68C234.29 12.68 234.81 12.64 235.23 12.64C235.65 12.64 236.07 12.68 236.39 12.68C236.59 12.68 236.63 12.63 236.63 12.39C236.63 12.19 236.56 12.18 236.33 12.18L235.56 12.18C235.40 12.18 235.47 12.11 235.59 11.90C236.12 11.03 237.47 9.09 237.87 8.51C237.92 8.44 237.94 8.46 237.99 8.53C238.52 9.42 239.65 11.30 240.02 12.03C240.09 12.14 240.07 12.18 239.95 12.18L239.25 12.18C239.02 12.18 238.95 12.19 238.95 12.39C238.95 12.63 238.99 12.68 239.19 12.68C239.51 12.68 240.39 12.64 240.81 12.64C241.23 12.64 242.05 12.68 242.27 12.68C242.49 12.68 242.54 12.67 242.54 12.43C242.54 12.19 242.51 12.18 242.24 12.18L241.77 12.18C241.68 12.18 239.23 8.32 238.80 7.63C238.77 7.59 238.76 7.53 238.80 7.48C239.08 7.06 240.09 5.78 240.91 4.59C241.22 4.14 241.53 3.77 241.57 3.77L241.89 3.77C242.06 3.77 242.16 3.75 242.16 3.51C242.16 3.29 242.07 3.26 241.89 3.26C241.67 3.26 241.25 3.30 240.83 3.30C240.32 3.30 239.96 3.26 239.74 3.26C239.54 3.26 239.50 3.32 239.50 3.56C239.50 3.75 239.57 3.77 239.79 3.77L240.58 3.77L240.58 3.78C240.58 3.99 240.16 4.68 239.69 5.36C239.57 5.56 238.81 6.72 238.55 7.10C238.52 7.14 238.50 7.15 238.49 7.15C238.46 7.15 238.41 7.04 238.36 6.99C237.90 6.17 237.02 4.61 236.74 3.92C236.70 3.81 236.64 3.77 236.81 3.77L237.38 3.77C237.61 3.77 237.68 3.75 237.68 3.56C237.68 3.32 237.66 3.26 237.47 3.26C237.15 3.26 236.50 3.30 236.08 3.30C235.66 3.30 234.64 3.26 234.42 3.26C234.23 3.26 234.15 3.28 234.15 3.51C234.15 3.75 234.26 3.77 234.43 3.77L234.98 3.77C235.06 3.77 237.38 7.56 237.59 7.91C237.66 8.01 237.68 8.05 237.61 8.15C236.94 9.02 236.21 9.88 235.59 10.79C235.09 11.52 234.65 12.18 234.58 12.18L234.07 12.18C233.90 12.18 233.80 12.19 233.80 12.43ZM249.73 12.43C249.73 12.66 249.82 12.68 250.00 12.68C250.22 12.68 250.74 12.64 251.16 12.64C251.58 12.64 252.00 12.68 252.32 12.68C252.52 12.68 252.56 12.63 252.56 12.39C252.56 12.19 252.49 12.18 252.27 12.18L251.50 12.18C251.33 12.18 251.40 12.11 251.52 11.90C252.06 11.03 253.40 9.09 253.81 8.51C253.85 8.44 253.88 8.46 253.92 8.53C254.45 9.42 255.58 11.30 255.95 12.03C256.02 12.14 256.00 12.18 255.88 12.18L255.18 12.18C254.95 12.18 254.88 12.19 254.88 12.39C254.88 12.63 254.93 12.68 255.12 12.68C255.44 12.68 256.33 12.64 256.75 12.64C257.17 12.64 257.98 12.68 258.20 12.68C258.43 12.68 258.47 12.67 258.47 12.43C258.47 12.19 258.44 12.18 258.17 12.18L257.70 12.18C257.61 12.18 255.16 8.32 254.73 7.63C254.70 7.59 254.69 7.53 254.73 7.48C255.01 7.06 256.02 5.78 256.84 4.59C257.15 4.14 257.46 3.77 257.50 3.77L257.82 3.77C257.99 3.77 258.09 3.75 258.09 3.51C258.09 3.29 258.01 3.26 257.82 3.26C257.60 3.26 257.18 3.30 256.76 3.30C256.26 3.30 255.89 3.26 255.67 3.26C255.47 3.26 255.43 3.32 255.43 3.56C255.43 3.75 255.50 3.77 255.72 3.77L256.51 3.77L256.51 3.78C256.51 3.99 256.09 4.68 255.63 5.36C255.50 5.56 254.74 6.72 254.48 7.10C254.45 7.14 254.44 7.15 254.42 7.15C254.39 7.15 254.34 7.04 254.30 6.99C253.83 6.17 252.95 4.61 252.67 3.92C252.63 3.81 252.57 3.77 252.74 3.77L253.32 3.77C253.54 3.77 253.61 3.75 253.61 3.56C253.61 3.32 253.60 3.26 253.40 3.26C253.08 3.26 252.43 3.30 252.01 3.30C251.59 3.30 250.57 3.26 250.35 3.26C250.17 3.26 250.08 3.28 250.08 3.51C250.08 3.75 250.19 3.77 250.36 3.77L250.91 3.77C250.99 3.77 253.32 7.56 253.53 7.91C253.60 8.01 253.61 8.05 253.54 8.15C252.87 9.02 252.14 9.88 251.52 10.79C251.02 11.52 250.59 12.18 250.52 12.18L250.00 12.18C249.83 12.18 249.73 12.19 249.73 12.43ZM266.08 12.39C266.08 12.63 266.11 12.68 266.31 12.68C266.63 12.68 267.60 12.64 268.02 12.64C268.44 12.64 272.94 12.68 273.27 12.68C273.39 12.68 273.55 12.66 273.55 12.49C273.55 12.07 273.59 11.23 273.59 10.53C273.59 10.39 273.43 10.39 273.31 10.39C273.20 10.39 273.07 10.39 273.07 10.51C273.06 11.06 273.06 11.41 273.03 11.76C273 12.01 273 12.04 272.90 12.04C272.75 12.04 270.12 12.08 268.62 12.08C268.55 12.08 268.51 10.11 268.46 8.26C268.46 8.06 268.51 8.09 268.65 8.09L270.93 8.09C271.63 8.09 271.66 8.20 271.66 8.30L271.66 9.00C271.66 9.14 271.84 9.14 271.95 9.14C272.05 9.14 272.17 9.13 272.17 9.02C272.17 8.83 272.15 8.33 272.15 7.83C272.15 7.32 272.17 6.83 272.17 6.71C272.17 6.59 272.03 6.58 271.94 6.58C271.82 6.58 271.66 6.59 271.66 6.72L271.66 7.45C271.66 7.62 271.21 7.63 270.93 7.63L268.59 7.63C268.48 7.63 268.46 7.63 268.46 7.45C268.45 6.75 268.44 6.06 268.44 5.46C268.44 5.12 268.44 3.71 268.52 3.71C269.75 3.71 272.26 3.75 272.26 3.81C272.26 3.99 272.22 4.83 272.22 4.89C272.22 5.04 272.29 5.10 272.47 5.10C272.66 5.10 272.73 5.08 272.73 4.94C272.73 3.85 272.79 3.36 272.79 3.09C272.79 2.91 272.71 2.90 272.51 2.90C272.31 2.90 272.31 2.95 272.29 3.11C272.27 3.25 272.34 3.25 271.43 3.25C270.82 3.25 268.67 3.29 267.90 3.29C267.41 3.29 266.48 3.25 266.38 3.25C266.25 3.25 266.20 3.30 266.20 3.49C266.20 3.72 266.27 3.74 266.43 3.74L267.09 3.74C267.15 3.74 267.22 4.79 267.22 5.71C267.22 5.80 267.27 8.27 267.27 9.83L267.27 11.17C267.27 11.84 267.25 12.18 267.22 12.18L266.36 12.18C266.14 12.18 266.08 12.21 266.08 12.39ZM281.48 12.46C281.48 12.63 281.50 12.70 281.68 12.70C281.83 12.70 283.07 12.64 283.46 12.64C284.31 12.64 285.19 12.70 286.05 12.70C288.67 12.70 291.06 11.07 291.06 7.91C291.06 4.89 288.72 3.07 285.68 3.07C285.12 3.07 283.86 3.23 282.83 3.23C282.35 3.23 281.89 3.22 281.83 3.22C281.65 3.22 281.64 3.32 281.64 3.49C281.64 3.68 281.71 3.70 281.83 3.70L282.80 3.67C282.83 3.67 282.83 4.20 282.83 4.72C282.83 5.91 282.74 12.21 282.66 12.21L281.76 12.21C281.58 12.21 281.48 12.22 281.48 12.46ZM284.06 11.40C284.06 9.46 284.06 7.52 284.07 5.60C284.07 5.03 284.12 3.61 284.16 3.60C284.45 3.53 285.04 3.51 285.39 3.51C287.95 3.51 289.56 5.75 289.56 7.73C289.56 8.95 289.52 12.25 284.84 12.25C284.58 12.25 284.17 12.25 284.07 12.21C284.06 12.19 284.06 11.79 284.06 11.40ZM308.74 9.79C308.74 9.84 308.78 9.87 308.84 9.87C309.04 9.87 311.35 9.77 311.54 9.76C311.64 9.74 311.68 9.38 311.68 9.21C311.68 9.17 311.68 9.09 311.63 9.09C311.54 9.09 309.15 9.17 309.01 9.18C308.88 9.20 308.74 9.69 308.74 9.79ZM329.38 3.51C329.38 3.75 329.46 3.77 329.63 3.77L330.16 3.77C330.22 3.77 330.22 4.12 330.22 4.55C330.22 5.66 330.20 8.96 330.20 9.42C330.20 11.13 330.46 12.80 333.31 12.80C334.39 12.80 335.55 12.38 336.21 12.00C336.46 11.86 336.76 11.72 336.84 11.72C337.11 11.72 337.37 12.74 337.71 12.74C338.03 12.74 338.04 12.35 338.04 12.25C338.04 11.96 338.10 10.08 338.14 8.16C338.20 6.12 338.18 3.77 338.30 3.77L338.62 3.77C338.84 3.77 338.91 3.75 338.91 3.56C338.91 3.32 338.87 3.26 338.67 3.26C338.53 3.26 338.00 3.30 337.58 3.30C337.16 3.30 336.36 3.26 336.14 3.26C335.96 3.26 335.86 3.28 335.86 3.51C335.86 3.75 335.97 3.77 336.14 3.77L336.84 3.77C336.91 3.77 336.92 4.30 336.92 4.87L336.92 9.14C336.92 11.19 336.92 11.12 336.59 11.34C336.20 11.61 335.38 12.08 334.21 12.08C332.23 12.08 331.44 11.17 331.44 9.41C331.44 8.82 331.51 3.77 331.62 3.77L332.53 3.77C332.75 3.77 332.79 3.75 332.79 3.56C332.79 3.32 332.78 3.26 332.58 3.26C332.26 3.26 331.38 3.30 330.96 3.30C330.54 3.30 329.85 3.26 329.63 3.26C329.45 3.26 329.38 3.28 329.38 3.51ZM346.95 12.39C346.95 12.63 346.96 12.68 347.16 12.68C347.34 12.68 347.72 12.64 348.33 12.64C348.96 12.64 349.52 12.68 349.85 12.68C350.01 12.68 350.01 12.61 350.01 12.40C350.01 12.24 350.01 12.18 349.85 12.18L348.64 12.18C348.60 12.18 348.59 11.54 348.59 10.79C348.59 9.46 348.60 7.48 348.60 5.99C348.60 5.25 348.60 4.84 348.61 4.28C348.61 4.02 348.68 4.14 348.81 4.28L355.70 12.66C355.78 12.75 355.87 12.89 355.98 12.89C356.09 12.89 356.16 12.77 356.16 12.54C356.16 12.39 356.33 6.65 356.34 4.48C356.34 4.06 356.37 3.70 356.40 3.70L357.03 3.70C357.25 3.70 357.31 3.68 357.31 3.49C357.31 3.25 357.31 3.19 357.11 3.19C356.92 3.19 356.48 3.23 355.92 3.23C355.31 3.23 354.51 3.19 354.41 3.19C354.24 3.19 354.24 3.26 354.24 3.47C354.24 3.64 354.24 3.70 354.41 3.70L355.71 3.70C355.73 3.70 355.73 4.33 355.73 4.44C355.73 5.85 355.75 8.33 355.75 9.70L355.75 10.29C355.75 10.57 355.74 10.65 355.52 10.37L349.83 3.39C349.72 3.25 349.69 3.19 349.52 3.19C349.44 3.19 349.06 3.23 348.75 3.23C348.46 3.23 347.38 3.19 347.19 3.19C347.02 3.19 346.99 3.26 346.99 3.47C346.99 3.64 347.02 3.70 347.19 3.70L348.10 3.70C348.10 4.17 348.05 8.53 347.98 10.79C347.96 11.69 347.97 12.18 347.86 12.18L347.21 12.18C346.99 12.18 346.95 12.19 346.95 12.39ZM365.20 12.39C365.20 12.63 365.20 12.68 365.40 12.68C365.57 12.68 365.89 12.64 366.46 12.64C367.08 12.64 367.63 12.68 367.78 12.68C367.95 12.68 367.95 12.61 367.95 12.40C367.95 12.24 367.95 12.18 367.78 12.18L366.70 12.18C366.70 12.18 366.69 12.18 366.69 12.17C366.70 11.87 367.47 9.90 367.82 9.02C367.89 8.83 367.91 8.79 368.12 8.79L370.94 8.79C371.08 8.79 371.08 8.81 371.15 9.03C371.42 9.77 372.13 11.89 372.13 12.17C372.13 12.18 372.12 12.18 372.12 12.18L371.35 12.18C371.13 12.18 371.11 12.19 371.11 12.39C371.11 12.63 371.13 12.68 371.29 12.68C371.62 12.68 372.48 12.64 372.90 12.64C373.32 12.64 374.00 12.68 374.21 12.68C374.35 12.68 374.36 12.61 374.36 12.40C374.36 12.24 374.35 12.18 374.21 12.18L373.72 12.18C373.62 12.18 372.60 9.34 372.04 7.78L370.36 3.07C370.34 3.00 370.27 2.94 370.19 2.94C370.06 2.94 369.96 3.16 369.88 3.35C369.73 3.71 369.49 3.84 369.38 4.13L367.89 7.57C367.71 8.01 366.00 12.18 365.88 12.18L365.46 12.18C365.23 12.18 365.20 12.19 365.20 12.39ZM368.10 8.33C368.10 8.30 368.13 8.23 368.17 8.13L369.54 4.77C369.59 4.66 369.61 4.61 369.64 4.61C369.66 4.61 369.67 4.63 369.71 4.77L370.87 8.18C370.90 8.25 370.92 8.29 370.92 8.32C370.92 8.36 370.89 8.37 370.79 8.37L368.28 8.37C368.10 8.37 368.10 8.34 368.10 8.33ZM382.12 3.49C382.12 3.72 382.23 3.74 382.40 3.74L383.01 3.74C383.07 3.74 383.14 4.79 383.14 5.71C383.14 5.80 383.19 8.27 383.19 9.83L383.19 11.17C383.19 11.84 383.18 12.18 383.12 12.18L382.54 12.18C382.31 12.18 382.24 12.19 382.24 12.39C382.24 12.63 382.26 12.68 382.45 12.68C382.66 12.68 383.50 12.64 383.92 12.64C384.34 12.64 385.28 12.68 385.60 12.68C385.77 12.68 385.80 12.61 385.80 12.40C385.80 12.24 385.77 12.18 385.60 12.18L384.47 12.18C384.41 12.18 384.43 10.16 384.38 8.33C384.38 8.08 384.37 8.09 384.57 8.09L386.99 8.09C387.69 8.09 387.72 8.19 387.72 8.30L387.72 9.16C387.72 9.28 387.90 9.28 388.01 9.28C388.11 9.28 388.23 9.28 388.23 9.17C388.23 8.99 388.21 8.33 388.21 7.83C388.21 7.32 388.23 6.82 388.23 6.69C388.23 6.58 388.12 6.58 388.00 6.58C387.83 6.58 387.72 6.58 387.72 6.71L387.72 7.45C387.72 7.62 387.27 7.63 386.99 7.63L384.57 7.63C384.36 7.63 384.38 7.66 384.38 7.45C384.37 7.13 384.36 6.15 384.36 5.26C384.36 4.52 384.37 3.71 384.44 3.71C385.84 3.71 388.02 3.75 388.32 3.79C388.32 3.96 388.28 4.82 388.28 4.89C388.28 5.04 388.35 5.10 388.53 5.10C388.72 5.10 388.79 5.08 388.79 4.94C388.79 3.85 388.85 3.36 388.85 3.09C388.85 2.93 388.77 2.90 388.57 2.90C388.44 2.90 388.37 2.90 388.35 3.11C388.33 3.25 388.40 3.25 387.45 3.25C386.85 3.25 384.57 3.29 383.82 3.29C383.33 3.29 382.40 3.25 382.30 3.25C382.17 3.25 382.12 3.30 382.12 3.49ZM396.82 3.51C396.82 3.72 396.89 3.79 397.08 3.79L397.89 3.77C397.99 3.77 398.03 6.61 398.03 8.55L398.03 10.42C398.03 11.30 398.02 12.18 397.98 12.18L397.38 12.18C397.15 12.18 397.08 12.19 397.08 12.39C397.08 12.63 397.12 12.68 397.32 12.68C397.45 12.68 398.27 12.64 398.69 12.64C399.11 12.64 399.88 12.68 400.20 12.68C400.37 12.68 400.40 12.61 400.40 12.40C400.40 12.24 400.37 12.18 400.20 12.18L399.39 12.18C399.32 12.18 399.24 9.18 399.24 8.37C399.24 8.30 399.24 8.26 399.35 8.26C399.74 8.26 400.34 8.27 400.64 8.27C402.88 8.32 403.02 10.00 403.02 11.68L403.02 12.49C403.02 12.61 403.07 12.64 403.17 12.64C403.17 12.64 404.61 12.68 405.09 12.68C405.26 12.68 405.31 12.64 405.31 12.53C405.31 12.24 405.26 12.18 405.10 12.18L404.46 12.18C404.36 12.18 404.33 12.14 404.31 11.31C404.22 8.99 402.85 8.34 401.94 8.05C401.80 8.01 401.83 8.01 401.94 7.95C402.53 7.69 403.84 6.94 403.84 5.63C403.84 3.63 402.15 3.21 400.75 3.21C400.43 3.21 399.14 3.29 398.72 3.29C398.30 3.29 397.32 3.26 397.10 3.26C396.91 3.26 396.82 3.28 396.82 3.51ZM399.24 7.80L399.24 4.40C399.24 4.05 399.27 3.68 399.31 3.68C399.52 3.65 399.80 3.65 400.02 3.65C401.32 3.65 402.57 4.47 402.57 5.82C402.57 6.99 402.02 7.57 401.37 7.88C401.32 7.90 401.28 7.90 401.21 7.90C400.74 7.88 400.02 7.88 399.42 7.87C399.25 7.87 399.24 7.85 399.24 7.80ZM412.65 12.39C412.65 12.63 412.65 12.68 412.85 12.68C413.01 12.68 413.34 12.64 413.91 12.64C414.53 12.64 415.07 12.68 415.23 12.68C415.39 12.68 415.39 12.61 415.39 12.40C415.39 12.24 415.39 12.18 415.23 12.18L414.15 12.18C414.15 12.18 414.13 12.18 414.13 12.17C414.15 11.87 414.92 9.90 415.27 9.02C415.34 8.83 415.35 8.79 415.56 8.79L418.39 8.79C418.53 8.79 418.53 8.81 418.60 9.03C418.87 9.77 419.58 11.89 419.58 12.17C419.58 12.18 419.57 12.18 419.57 12.18L418.80 12.18C418.57 12.18 418.56 12.19 418.56 12.39C418.56 12.63 418.57 12.68 418.74 12.68C419.06 12.68 419.93 12.64 420.35 12.64C420.77 12.64 421.44 12.68 421.65 12.68C421.79 12.68 421.81 12.61 421.81 12.40C421.81 12.24 421.79 12.18 421.65 12.18L421.16 12.18C421.06 12.18 420.04 9.34 419.48 7.78L417.80 3.07C417.79 3.00 417.72 2.94 417.63 2.94C417.51 2.94 417.41 3.16 417.33 3.35C417.17 3.71 416.93 3.84 416.82 4.13L415.34 7.57C415.16 8.01 413.45 12.18 413.32 12.18L412.90 12.18C412.68 12.18 412.65 12.19 412.65 12.39ZM415.55 8.33C415.55 8.30 415.58 8.23 415.62 8.13L416.99 4.77C417.03 4.66 417.06 4.61 417.09 4.61C417.10 4.61 417.12 4.63 417.16 4.77L418.32 8.18C418.35 8.25 418.36 8.29 418.36 8.32C418.36 8.36 418.33 8.37 418.24 8.37L415.73 8.37C415.55 8.37 415.55 8.34 415.55 8.33ZM429.42 12.39C429.42 12.63 429.46 12.68 429.66 12.68C429.98 12.68 430.74 12.64 431.45 12.64C432.11 12.64 432.91 12.68 433.13 12.68C433.30 12.68 433.33 12.61 433.33 12.40C433.33 12.24 433.30 12.18 433.13 12.18L432.17 12.18C432.07 12.18 432.04 9.55 432.04 7.76L432.04 5.87C432.04 5.14 432.07 3.70 432.17 3.70L433.08 3.70C433.30 3.70 433.33 3.68 433.33 3.49C433.33 3.25 433.30 3.19 433.13 3.19C432.81 3.19 432.14 3.23 431.48 3.23C430.67 3.23 429.95 3.19 429.73 3.19C429.55 3.19 429.48 3.21 429.48 3.44C429.48 3.68 429.56 3.70 429.73 3.70L430.65 3.70C430.70 3.70 430.77 4.79 430.77 5.71L430.77 7.08C430.77 8.92 430.75 12.18 430.64 12.18L429.72 12.18C429.49 12.18 429.42 12.19 429.42 12.39ZM441.15 12.46C441.15 12.63 441.17 12.70 441.35 12.70C441.50 12.70 442.74 12.64 443.13 12.64C443.98 12.64 444.86 12.70 445.72 12.70C448.34 12.70 450.73 11.07 450.73 7.91C450.73 4.89 448.39 3.07 445.35 3.07C444.79 3.07 443.53 3.23 442.50 3.23C442.02 3.23 441.56 3.22 441.50 3.22C441.32 3.22 441.31 3.32 441.31 3.49C441.31 3.68 441.38 3.70 441.50 3.70L442.47 3.67C442.50 3.67 442.50 4.20 442.50 4.72C442.50 5.91 442.41 12.21 442.33 12.21L441.43 12.21C441.25 12.21 441.15 12.22 441.15 12.46ZM443.73 11.40C443.73 9.46 443.73 7.52 443.74 5.60C443.74 5.03 443.79 3.61 443.83 3.60C444.12 3.53 444.71 3.51 445.06 3.51C447.62 3.51 449.23 5.75 449.23 7.73C449.23 8.95 449.19 12.25 444.51 12.25C444.25 12.25 443.84 12.25 443.74 12.21C443.73 12.19 443.73 11.79 443.73 11.40Z"></path></g></svg>