<svg data-v-fde0c5aa="" xmlns="http://www.w3.org/2000/svg" viewBox="0 0 300 300" class="font"><!----><defs data-v-fde0c5aa=""><!----></defs><rect data-v-fde0c5aa="" fill="transparent" x="0" y="0" width="300px" height="300px" class="logo-background-square"></rect><defs data-v-fde0c5aa=""><linearGradient data-v-fde0c5aa="" gradientTransform="rotate(25)" id="da56cf40-4b7a-4f90-9bc0-12aa1d83018c" x1="0%" y1="0%" x2="100%" y2="0%"><stop data-v-fde0c5aa="" offset="0%" stop-color="#420F14" stop-opacity="1"></stop><stop data-v-fde0c5aa="" offset="100%" stop-color="#C5545E" stop-opacity="1"></stop></linearGradient></defs><g data-v-fde0c5aa="" id="f03e1bee-545e-4867-95bf-099b479c4c6f" fill="url(#da56cf40-4b7a-4f90-9bc0-12aa1d83018c)" transform="matrix(2.7153787755943006,0,0,2.7153787755943006,37.69192797600517,134.3729943501568)"><path d="M6.01 4.23L6.01 4.23L6.01 4.23Q6.01 3.71 5.91 3.41L5.91 3.41L5.91 3.41Q5.81 3.11 5.57 2.95L5.57 2.95L5.57 2.95Q5.32 2.80 5.03 2.75L5.03 2.75L5.03 2.75Q4.75 2.70 4.24 2.70L4.24 2.70L4.24 5.78L4.24 5.78Q4.63 5.78 4.94 5.71L4.94 5.71L4.94 5.71Q5.24 5.64 5.49 5.47L5.49 5.47L5.49 5.47Q5.74 5.31 5.87 4.99L5.87 4.99L5.87 4.99Q6.01 4.68 6.01 4.23ZM4.24 7.62L4.24 8.40L4.24 8.40Q4.24 9.53 3.82 10.02L3.82 10.02L3.82 10.02Q3.40 10.50 2.53 10.50L2.53 10.50L2.53 10.50Q1.67 10.50 1.26 10.06L1.26 10.06L1.26 10.06Q0.85 9.62 0.85 8.50L0.85 8.50L0.85 2.59L0.85 2.59Q0.85 1.74 1.32 1.32L1.32 1.32L1.32 1.32Q1.78 0.91 2.53 0.91L2.53 0.91L5.03 0.91L5.03 0.91Q5.94 0.91 6.71 1.15L6.71 1.15L6.71 1.15Q7.48 1.40 8.04 1.84L8.04 1.84L8.04 1.84Q8.61 2.28 8.93 2.95L8.93 2.95L8.93 2.95Q9.24 3.61 9.24 4.42L9.24 4.42L9.24 4.42Q9.24 5.42 8.67 6.15L8.67 6.15L8.67 6.15Q8.09 6.89 7.15 7.25L7.15 7.25L7.15 7.25Q6.22 7.62 5.04 7.62L5.04 7.62L4.24 7.62ZM13.50 4.98L13.51 7.55L13.51 7.55Q13.51 8.34 14.13 8.34L14.13 8.34L14.13 8.34Q14.34 8.34 14.50 8.21L14.50 8.21L14.50 8.21Q14.66 8.08 14.74 7.84L14.74 7.84L14.74 7.84Q14.83 7.60 14.83 7.29L14.83 7.29L14.83 5.42L14.83 5.42Q14.83 4.94 14.99 4.58L14.99 4.58L14.99 4.58Q15.16 4.23 15.48 4.03L15.48 4.03L15.48 4.03Q15.81 3.84 16.24 3.84L16.24 3.84L16.24 3.84Q17.00 3.84 17.42 4.17L17.42 4.17L17.42 4.17Q17.84 4.49 17.84 5.38L17.84 5.38L17.84 9.02L17.84 9.02Q17.84 9.87 17.49 10.19L17.49 10.19L17.49 10.19Q17.14 10.51 16.25 10.51L16.25 10.51L16.25 10.51Q15.88 10.51 15.61 10.44L15.61 10.44L15.61 10.44Q15.34 10.36 15.18 10.21L15.18 10.21L15.18 10.21Q15.02 10.05 14.94 9.80L14.94 9.80L14.94 9.80Q14.36 10.18 13.73 10.33L13.73 10.33L13.73 10.33Q13.09 10.49 12.31 10.49L12.31 10.49L12.31 10.49Q11.31 10.49 10.88 9.71L10.88 9.71L10.88 9.71Q10.44 8.93 10.44 7.15L10.44 7.15L10.44 7.15Q10.44 6.27 10.49 5.72L10.49 5.72L10.49 5.72Q10.53 5.17 10.62 4.77L10.62 4.77L10.62 4.77Q10.71 4.37 10.90 4.17L10.90 4.17L10.90 4.17Q11.09 3.98 11.35 3.89L11.35 3.89L11.35 3.89Q11.61 3.81 12.03 3.81L12.03 3.81L12.03 3.81Q12.81 3.81 13.15 4.10L13.15 4.10L13.15 4.10Q13.50 4.40 13.50 4.98L13.50 4.98ZM22.20 6.19L22.20 9.00L22.20 9.00Q22.20 9.84 21.85 10.17L21.85 10.17L21.85 10.17Q21.50 10.50 20.61 10.50L20.61 10.50L20.61 10.50Q19.78 10.50 19.49 10.12L19.49 10.12L19.49 10.12Q19.19 9.73 19.19 8.85L19.19 8.85L19.19 5.40L19.19 5.40Q19.19 4.93 19.36 4.57L19.36 4.57L19.36 4.57Q19.53 4.21 19.85 4.02L19.85 4.02L19.85 4.02Q20.17 3.82 20.61 3.82L20.61 3.82L20.61 3.82Q21.67 3.82 22.01 4.44L22.01 4.44L22.01 4.44Q22.82 3.82 23.58 3.82L23.58 3.82L23.58 3.82Q25.05 3.82 25.05 5.22L25.05 5.22L25.05 5.22Q25.05 5.78 24.72 6.13L24.72 6.13L24.72 6.13Q24.40 6.48 23.88 6.48L23.88 6.48L23.88 6.48Q23.58 6.48 23.39 6.36L23.39 6.36L23.39 6.36Q23.20 6.23 23.04 6.10L23.04 6.10L23.04 6.10Q22.88 5.98 22.67 5.98L22.67 5.98L22.67 5.98Q22.36 5.98 22.20 6.19L22.20 6.19ZM29.65 10.58L29.65 10.58L29.65 10.58Q27.94 10.58 26.83 9.70L26.83 9.70L26.83 9.70Q25.72 8.82 25.72 7.29L25.72 7.29L25.72 7.29Q25.72 5.64 26.82 4.68L26.82 4.68L26.82 4.68Q27.92 3.72 29.65 3.72L29.65 3.72L29.65 3.72Q31.29 3.72 32.05 4.30L32.05 4.30L32.05 4.30Q32.82 4.89 32.82 5.89L32.82 5.89L32.82 5.89Q32.82 6.09 32.77 6.27L32.77 6.27L32.77 6.27Q32.72 6.45 32.61 6.63L32.61 6.63L32.61 6.63Q32.51 6.80 32.33 6.95L32.33 6.95L32.33 6.95Q32.16 7.10 31.93 7.22L31.93 7.22L31.93 7.22Q31.71 7.34 31.40 7.40L31.40 7.40L31.40 7.40Q31.09 7.46 30.74 7.46L30.74 7.46L28.77 7.48L28.77 7.48Q28.91 7.92 29.27 8.18L29.27 8.18L29.27 8.18Q29.64 8.44 30.20 8.44L30.20 8.44L30.20 8.44Q30.80 8.44 31.43 8.29L31.43 8.29L31.43 8.29Q31.70 8.22 32.01 8.06L32.01 8.06L32.01 8.06Q32.33 7.91 32.47 7.91L32.47 7.91L32.47 7.91Q32.70 7.91 32.84 8.05L32.84 8.05L32.84 8.05Q32.97 8.19 32.97 8.40L32.97 8.40L32.97 8.40Q32.97 8.65 32.75 9.01L32.75 9.01L32.75 9.01Q32.52 9.37 32.12 9.72L32.12 9.72L32.12 9.72Q31.72 10.08 31.07 10.33L31.07 10.33L31.07 10.33Q30.41 10.58 29.65 10.58ZM28.70 6.58L28.70 6.58L28.70 6.58Q29.67 6.57 29.75 6.57L29.75 6.57L29.75 6.57Q29.96 6.57 30.06 6.31L30.06 6.31L30.06 6.31Q30.13 6.13 30.13 5.81L30.13 5.81L30.13 5.81Q30.13 4.93 29.60 4.93L29.60 4.93L29.60 4.93Q29.40 4.93 29.21 5.14L29.21 5.14L29.21 5.14Q29.02 5.35 28.88 5.73L28.88 5.73L28.88 5.73Q28.74 6.12 28.70 6.58ZM39.72 3.61L39.72 3.61L39.72 3.61Q39.72 3.02 39.26 2.81L39.26 2.81L39.26 2.81Q38.81 2.59 37.74 2.59L37.74 2.59L37.74 4.73L37.74 4.73Q38.40 4.73 38.81 4.63L38.81 4.63L38.81 4.63Q39.23 4.54 39.47 4.29L39.47 4.29L39.47 4.29Q39.72 4.05 39.72 3.61ZM39.90 7.35L39.90 7.35L39.90 7.35Q39.90 6.89 39.66 6.64L39.66 6.64L39.66 6.64Q39.42 6.38 38.98 6.28L38.98 6.28L38.98 6.28Q38.53 6.17 37.74 6.17L37.74 6.17L37.74 8.60L37.74 8.60Q38.84 8.60 39.37 8.32L39.37 8.32L39.37 8.32Q39.90 8.05 39.90 7.35ZM41.62 5.52L41.62 5.52L41.62 5.52Q42.92 6.29 42.92 7.57L42.92 7.57L42.92 7.57Q42.92 8.13 42.71 8.64L42.71 8.64L42.71 8.64Q42.49 9.16 42.06 9.58L42.06 9.58L42.06 9.58Q41.64 10.00 40.94 10.24L40.94 10.24L40.94 10.24Q40.24 10.49 39.35 10.49L39.35 10.49L36.11 10.49L36.11 10.49Q35.25 10.49 34.88 10.05L34.88 10.05L34.88 10.05Q34.51 9.62 34.51 8.50L34.51 8.50L34.51 2.58L34.51 2.58Q34.51 2.10 34.68 1.74L34.68 1.74L34.68 1.74Q34.85 1.37 35.22 1.15L35.22 1.15L35.22 1.15Q35.59 0.92 36.11 0.92L36.11 0.92L39.31 0.92L39.31 0.92Q40.71 0.94 41.64 1.69L41.64 1.69L41.64 1.69Q42.57 2.44 42.57 3.61L42.57 3.61L42.57 3.61Q42.57 3.99 42.51 4.28L42.51 4.28L42.51 4.28Q42.45 4.56 42.32 4.79L42.32 4.79L42.32 4.79Q42.20 5.01 42.03 5.18L42.03 5.18L42.03 5.18Q41.86 5.35 41.62 5.52ZM47.47 2.46L47.47 8.39L47.47 8.39Q47.47 9.52 47.10 10.01L47.10 10.01L47.10 10.01Q46.72 10.50 45.93 10.50L45.93 10.50L45.93 10.50Q45.15 10.50 44.79 10.06L44.79 10.06L44.79 10.06Q44.42 9.62 44.42 8.50L44.42 8.50L44.39 2.59L44.39 2.59Q44.39 2.23 44.47 1.95L44.47 1.95L44.47 1.95Q44.55 1.67 44.68 1.47L44.68 1.47L44.68 1.47Q44.81 1.27 45.01 1.15L45.01 1.15L45.01 1.15Q45.21 1.02 45.44 0.97L45.44 0.97L45.44 0.97Q45.67 0.91 45.93 0.91L45.93 0.91L45.93 0.91Q46.70 0.91 47.09 1.22L47.09 1.22L47.09 1.22Q47.47 1.53 47.47 2.46L47.47 2.46ZM53.28 7.18L53.28 7.18L53.28 7.18Q53.28 6.45 53.10 5.90L53.10 5.90L53.10 5.90Q52.92 5.35 52.57 5.35L52.57 5.35L52.57 5.35Q52.33 5.35 52.15 5.63L52.15 5.63L52.15 5.63Q51.97 5.91 51.88 6.31L51.88 6.31L51.88 6.31Q51.80 6.72 51.80 7.18L51.80 7.18L51.80 7.18Q51.80 7.90 52.00 8.44L52.00 8.44L52.00 8.44Q52.19 8.97 52.56 8.97L52.56 8.97L52.56 8.97Q52.92 8.97 53.10 8.44L53.10 8.44L53.10 8.44Q53.28 7.91 53.28 7.18ZM52.56 10.60L52.56 10.60L52.56 10.60Q51.46 10.60 50.59 10.21L50.59 10.21L50.59 10.21Q49.71 9.81 49.19 9.03L49.19 9.03L49.19 9.03Q48.66 8.25 48.66 7.20L48.66 7.20L48.66 7.20Q48.66 5.60 49.76 4.66L49.76 4.66L49.76 4.66Q50.85 3.72 52.56 3.72L52.56 3.72L52.56 3.72Q54.26 3.72 55.34 4.66L55.34 4.66L55.34 4.66Q56.42 5.60 56.42 7.20L56.42 7.20L56.42 7.20Q56.42 8.78 55.32 9.69L55.32 9.69L55.32 9.69Q54.22 10.60 52.56 10.60ZM62.12 7.18L62.12 7.18L62.12 7.18Q62.12 6.45 61.94 5.90L61.94 5.90L61.94 5.90Q61.75 5.35 61.40 5.35L61.40 5.35L61.40 5.35Q61.17 5.35 60.98 5.63L60.98 5.63L60.98 5.63Q60.80 5.91 60.72 6.31L60.72 6.31L60.72 6.31Q60.63 6.72 60.63 7.18L60.63 7.18L60.63 7.18Q60.63 7.90 60.83 8.44L60.83 8.44L60.83 8.44Q61.03 8.97 61.39 8.97L61.39 8.97L61.39 8.97Q61.75 8.97 61.94 8.44L61.94 8.44L61.94 8.44Q62.12 7.91 62.12 7.18ZM61.39 10.60L61.39 10.60L61.39 10.60Q60.30 10.60 59.42 10.21L59.42 10.21L59.42 10.21Q58.55 9.81 58.02 9.03L58.02 9.03L58.02 9.03Q57.50 8.25 57.50 7.20L57.50 7.20L57.50 7.20Q57.50 5.60 58.59 4.66L58.59 4.66L58.59 4.66Q59.68 3.72 61.39 3.72L61.39 3.72L61.39 3.72Q63.10 3.72 64.18 4.66L64.18 4.66L64.18 4.66Q65.25 5.60 65.25 7.20L65.25 7.20L65.25 7.20Q65.25 8.78 64.16 9.69L64.16 9.69L64.16 9.69Q63.06 10.60 61.39 10.60ZM73.89 2.46L73.89 8.40L73.89 8.40Q73.89 9.53 73.51 10.02L73.51 10.02L73.51 10.02Q73.14 10.50 72.35 10.50L72.35 10.50L72.35 10.50Q71.46 10.50 71.12 9.94L71.12 9.94L71.12 9.94Q70.21 10.60 68.92 10.60L68.92 10.60L68.92 10.60Q67.83 10.60 67.10 9.70L67.10 9.70L67.10 9.70Q66.37 8.79 66.37 7.22L66.37 7.22L66.37 7.22Q66.37 5.63 67.09 4.68L67.09 4.68L67.09 4.68Q67.80 3.74 68.92 3.74L68.92 3.74L68.92 3.74Q69.93 3.74 70.81 4.38L70.81 4.38L70.81 2.59L70.81 2.59Q70.81 1.74 71.23 1.32L71.23 1.32L71.23 1.32Q71.65 0.91 72.35 0.91L72.35 0.91L72.35 0.91Q73.12 0.91 73.51 1.22L73.51 1.22L73.51 1.22Q73.89 1.53 73.89 2.46L73.89 2.46ZM70.84 8.48L70.84 8.48L70.83 5.87L70.83 5.87Q70.59 5.47 70.21 5.47L70.21 5.47L70.21 5.47Q69.97 5.47 69.78 5.74L69.78 5.74L69.78 5.74Q69.59 6.01 69.50 6.40L69.50 6.40L69.50 6.40Q69.40 6.79 69.40 7.22L69.40 7.22L69.40 7.22Q69.40 7.87 69.61 8.37L69.61 8.37L69.61 8.37Q69.82 8.88 70.20 8.88L70.20 8.88L70.20 8.88Q70.27 8.88 70.34 8.86L70.34 8.86L70.34 8.86Q70.41 8.85 70.46 8.83L70.46 8.83L70.46 8.83Q70.52 8.81 70.57 8.77L70.57 8.77L70.57 8.77Q70.63 8.74 70.67 8.69L70.67 8.69L70.67 8.69Q70.71 8.65 70.76 8.60L70.76 8.60L70.76 8.60Q70.80 8.54 70.84 8.48ZM78.47 3.72L78.47 3.72L78.47 3.72Q79.77 3.72 80.64 4.26L80.64 4.26L80.64 4.26Q81.51 4.79 81.51 5.42L81.51 5.42L81.51 5.42Q81.51 5.60 81.35 5.75L81.35 5.75L81.35 5.75Q81.20 5.91 80.96 5.91L80.96 5.91L80.96 5.91Q80.75 5.91 80.50 5.76L80.50 5.76L80.50 5.76Q80.25 5.61 80.02 5.45L80.02 5.45L80.02 5.45Q79.80 5.28 79.44 5.14L79.44 5.14L79.44 5.14Q79.07 5.00 78.67 5.00L78.67 5.00L78.67 5.00Q78.12 5.00 78.12 5.33L78.12 5.33L78.12 5.33Q78.12 5.57 78.40 5.71L78.40 5.71L78.40 5.71Q78.68 5.85 79.22 6.01L79.22 6.01L79.22 6.01Q79.76 6.16 80.04 6.30L80.04 6.30L80.04 6.30Q81.09 6.71 81.48 7.17L81.48 7.17L81.48 7.17Q81.87 7.64 81.87 8.41L81.87 8.41L81.87 8.41Q81.87 8.79 81.66 9.16L81.66 9.16L81.66 9.16Q81.45 9.53 81.03 9.86L81.03 9.86L81.03 9.86Q80.61 10.19 79.89 10.39L79.89 10.39L79.89 10.39Q79.17 10.60 78.25 10.60L78.25 10.60L78.25 10.60Q76.44 10.60 75.54 9.77L75.54 9.77L75.54 9.77Q75.11 9.37 75.11 8.93L75.11 8.93L75.11 8.93Q75.11 8.67 75.28 8.51L75.28 8.51L75.28 8.51Q75.46 8.36 75.78 8.36L75.78 8.36L75.78 8.36Q76.10 8.36 76.76 8.67L76.76 8.67L76.76 8.67Q77.42 8.99 77.98 8.99L77.98 8.99L77.98 8.99Q78.75 8.99 78.75 8.61L78.75 8.61L78.75 8.61Q78.75 8.41 78.34 8.29L78.34 8.29L78.34 8.29Q77.94 8.18 77.28 8.01L77.28 8.01L77.28 8.01Q76.62 7.84 76.23 7.59L76.23 7.59L76.23 7.59Q75.61 7.32 75.37 6.92L75.37 6.92L75.37 6.92Q75.12 6.52 75.12 5.95L75.12 5.95L75.12 5.95Q75.12 4.97 76.06 4.35L76.06 4.35L76.06 4.35Q76.99 3.72 78.47 3.72Z"></path></g><!----><!----></svg>